<mxfile host="app.diagrams.net" modified="2021-04-27T12:30:38.802Z" agent="5.0 (Windows NT 10.0; Win64; x64) AppleWebKit/537.36 (KHTML, like Gecko) Chrome/89.0.4389.82 Safari/537.36" etag="THOHTK2Oc5K5D5NEHyQm" version="14.6.6" type="github">
  <diagram id="R2lEEEUBdFMjLlhIrx00" name="Page-1">
    <mxGraphModel dx="1038" dy="580" grid="1" gridSize="10" guides="1" tooltips="1" connect="1" arrows="1" fold="1" page="1" pageScale="1" pageWidth="850" pageHeight="1100" math="0" shadow="0" extFonts="Permanent Marker^https://fonts.googleapis.com/css?family=Permanent+Marker">
      <root>
        <mxCell id="0" />
        <mxCell id="1" parent="0" />
        <mxCell id="gkRY8lFSPDifXMp__N6S-1" value="Apply" style="swimlane;childLayout=stackLayout;horizontal=1;startSize=30;horizontalStack=0;rounded=1;fontSize=14;fontStyle=0;strokeWidth=2;resizeParent=0;resizeLast=1;shadow=0;dashed=0;align=center;" vertex="1" parent="1">
          <mxGeometry x="360" y="360" width="160" height="120" as="geometry" />
        </mxCell>
        <mxCell id="gkRY8lFSPDifXMp__N6S-2" value="id                                (long)&#xa;key                           (byte[])&#xa;uuid                          (String)&#xa;groupUuid                (String)&#xa;isGroup                (Boolean)" style="align=left;strokeColor=none;fillColor=none;spacingLeft=4;fontSize=12;verticalAlign=top;resizable=0;rotatable=0;part=1;" vertex="1" parent="gkRY8lFSPDifXMp__N6S-1">
          <mxGeometry y="30" width="160" height="90" as="geometry" />
        </mxCell>
        <mxCell id="gkRY8lFSPDifXMp__N6S-3" value="Friend" style="swimlane;childLayout=stackLayout;horizontal=1;startSize=30;horizontalStack=0;rounded=1;fontSize=14;fontStyle=0;strokeWidth=2;resizeParent=0;resizeLast=1;shadow=0;dashed=0;align=center;" vertex="1" parent="1">
          <mxGeometry x="440" y="120" width="160" height="200" as="geometry" />
        </mxCell>
        <mxCell id="gkRY8lFSPDifXMp__N6S-4" value="severPort                      (int)&#xa;avatarId                         (int)&#xa;id                                (long)&#xa;lastUpdated                (long)&#xa;key                           (byte[])&#xa;uuid                          (String)&#xa;nickname                 (String)&#xa;icon                          (String)&#xa;ipAddress                (String)&#xa;status                   (Boolean)" style="align=left;strokeColor=none;fillColor=none;spacingLeft=4;fontSize=12;verticalAlign=top;resizable=0;rotatable=0;part=1;" vertex="1" parent="gkRY8lFSPDifXMp__N6S-3">
          <mxGeometry y="30" width="160" height="170" as="geometry" />
        </mxCell>
        <mxCell id="gkRY8lFSPDifXMp__N6S-5" value="Group" style="swimlane;childLayout=stackLayout;horizontal=1;startSize=30;horizontalStack=0;rounded=1;fontSize=14;fontStyle=0;strokeWidth=2;resizeParent=0;resizeLast=1;shadow=0;dashed=0;align=center;" vertex="1" parent="1">
          <mxGeometry x="40" y="360" width="260" height="150" as="geometry" />
        </mxCell>
        <mxCell id="gkRY8lFSPDifXMp__N6S-6" value="avatarId                                                       (int)&#xa;id                                                              (long)&#xa;key                                                         (byte[])&#xa;name                                                     (String)&#xa;icon                                                       (String)&#xa;uuid                                                       (String)&#xa;groupMember         (ToMany&lt;GroupMember&gt;)" style="align=left;strokeColor=none;fillColor=none;spacingLeft=4;fontSize=12;verticalAlign=top;resizable=0;rotatable=0;part=1;" vertex="1" parent="gkRY8lFSPDifXMp__N6S-5">
          <mxGeometry y="30" width="260" height="120" as="geometry" />
        </mxCell>
        <mxCell id="gkRY8lFSPDifXMp__N6S-7" value="GroupMember" style="swimlane;childLayout=stackLayout;horizontal=1;startSize=30;horizontalStack=0;rounded=1;fontSize=14;fontStyle=0;strokeWidth=2;resizeParent=0;resizeLast=1;shadow=0;dashed=0;align=center;" vertex="1" parent="1">
          <mxGeometry x="580" y="360" width="160" height="180" as="geometry" />
        </mxCell>
        <mxCell id="gkRY8lFSPDifXMp__N6S-8" value="severPort                      (int)&#xa;avatarId                         (int)&#xa;id                                (long)&#xa;lastUpdated                (long)&#xa;uuid                          (String)&#xa;nickname                 (String)&#xa;icon                          (String)&#xa;ipAddress                (String)&#xa;status                   (Boolean)" style="align=left;strokeColor=none;fillColor=none;spacingLeft=4;fontSize=12;verticalAlign=top;resizable=0;rotatable=0;part=1;" vertex="1" parent="gkRY8lFSPDifXMp__N6S-7">
          <mxGeometry y="30" width="160" height="150" as="geometry" />
        </mxCell>
        <mxCell id="gkRY8lFSPDifXMp__N6S-11" value="LocalUser" style="swimlane;childLayout=stackLayout;horizontal=1;startSize=30;horizontalStack=0;rounded=1;fontSize=14;fontStyle=0;strokeWidth=2;resizeParent=0;resizeLast=1;shadow=0;dashed=0;align=center;" vertex="1" parent="1">
          <mxGeometry x="240" y="120" width="160" height="160" as="geometry" />
        </mxCell>
        <mxCell id="gkRY8lFSPDifXMp__N6S-12" value="severPort                      (int)&#xa;avatarId                         (int)&#xa;id                                (long)&#xa;key                           (byte[])&#xa;uuid                          (String)&#xa;nickname                 (String)&#xa;ipAddress                (String)" style="align=left;strokeColor=none;fillColor=none;spacingLeft=4;fontSize=12;verticalAlign=top;resizable=0;rotatable=0;part=1;" vertex="1" parent="gkRY8lFSPDifXMp__N6S-11">
          <mxGeometry y="30" width="160" height="130" as="geometry" />
        </mxCell>
        <mxCell id="gkRY8lFSPDifXMp__N6S-13" value="Message" style="swimlane;childLayout=stackLayout;horizontal=1;startSize=30;horizontalStack=0;rounded=1;fontSize=14;fontStyle=0;strokeWidth=2;resizeParent=0;resizeLast=1;shadow=0;dashed=0;align=center;" vertex="1" parent="1">
          <mxGeometry x="40" y="120" width="160" height="140" as="geometry" />
        </mxCell>
        <mxCell id="gkRY8lFSPDifXMp__N6S-14" value="id                                (long)&#xa;sendTime                   (long)&#xa;sessionId                 (String)&#xa;fromUuid                  (String)&#xa;toUuid                      (String)&#xa;message                  (String)" style="align=left;strokeColor=none;fillColor=none;spacingLeft=4;fontSize=12;verticalAlign=top;resizable=0;rotatable=0;part=1;" vertex="1" parent="gkRY8lFSPDifXMp__N6S-13">
          <mxGeometry y="30" width="160" height="110" as="geometry" />
        </mxCell>
        <mxCell id="gkRY8lFSPDifXMp__N6S-15" value="User" style="swimlane;childLayout=stackLayout;horizontal=1;startSize=30;horizontalStack=0;rounded=1;fontSize=14;fontStyle=0;strokeWidth=2;resizeParent=0;resizeLast=1;shadow=0;dashed=0;align=center;" vertex="1" parent="1">
          <mxGeometry x="640" y="120" width="160" height="200" as="geometry" />
        </mxCell>
        <mxCell id="gkRY8lFSPDifXMp__N6S-16" value="avatarId                         (int)&#xa;severPort                      (int)&#xa;id                                (long)&#xa;lastUpdated                (long)&#xa;uuid                          (String)&#xa;nickname                 (String)&#xa;linkLayerAddress     (String)&#xa;ipAddress                (String)&#xa;status                   (Boolean)" style="align=left;strokeColor=none;fillColor=none;spacingLeft=4;fontSize=12;verticalAlign=top;resizable=0;rotatable=0;part=1;" vertex="1" parent="gkRY8lFSPDifXMp__N6S-15">
          <mxGeometry y="30" width="160" height="170" as="geometry" />
        </mxCell>
      </root>
    </mxGraphModel>
  </diagram>
</mxfile>
